M48
;DRILL file {KiCad 4.0.7-e2-6376~58~ubuntu16.04.1} date Sun Sep  3 23:15:35 2017
;FORMAT={-:-/ absolute / inch / decimal}
FMAT,2
INCH,TZ
T1C0.010
T2C0.016
%
G90
G05
M72
T1
X0.965Y-4.435
X0.965Y-4.84
X1.81Y-4.84
X2.02Y-4.43
X3.12Y-4.43
X3.12Y-4.84
X4.445Y-4.43
X4.445Y-4.84
X5.765Y-4.43
X5.765Y-4.84
X7.08Y-4.84
X7.085Y-4.43
X8.4Y-4.43
X8.4Y-4.84
X9.72Y-4.43
X9.72Y-4.84
X11.04Y-4.43
X11.04Y-4.84
X12.36Y-4.84
X12.365Y-4.43
X13.465Y-4.43
X13.465Y-4.84
X14.78Y-4.43
X14.78Y-4.845
X15.885Y-4.84
X15.89Y-4.43
X16.98Y-4.43
X16.98Y-4.845
X18.295Y-4.84
X18.3Y-4.43
X19.615Y-4.84
X19.62Y-4.43
X20.935Y-4.84
X20.94Y-4.425
X22.255Y-4.84
X22.26Y-4.43
X23.57Y-4.43
X23.575Y-4.84
X24.895Y-4.43
X24.9Y-4.84
X26.215Y-4.43
X26.215Y-4.84
X27.535Y-4.43
X27.535Y-4.84
X28.86Y-4.435
X28.86Y-4.84
X30.18Y-4.43
X30.18Y-4.84
X31.72Y-4.43
X31.72Y-4.84
X33.03Y-4.43
X33.03Y-4.84
X34.355Y-4.43
X34.355Y-4.84
X35.69Y-4.855
X35.7Y-4.43
X36.06Y-4.425
X36.075Y-4.855
T2
X36.085Y-4.57
T0
M30
