G04 #@! TF.FileFunction,Soldermask,Bot*
%FSLAX46Y46*%
G04 Gerber Fmt 4.6, Leading zero omitted, Abs format (unit mm)*
G04 Created by KiCad (PCBNEW 4.0.7-e2-6376~58~ubuntu16.04.1) date Sun Sep  3 23:15:20 2017*
%MOMM*%
%LPD*%
G01*
G04 APERTURE LIST*
%ADD10C,0.100000*%
%ADD11R,3.000000X1.900000*%
%ADD12R,1.700000X1.100000*%
G04 APERTURE END LIST*
D10*
D11*
X914019000Y-118833000D03*
X914019000Y-115833000D03*
X908431000Y-118833000D03*
X908431000Y-115833000D03*
X902843000Y-118833000D03*
X902843000Y-115833000D03*
X897255000Y-118833000D03*
X897255000Y-115833000D03*
X891667000Y-118833000D03*
X891667000Y-115833000D03*
X886079000Y-118833000D03*
X886079000Y-115833000D03*
X880491000Y-118833000D03*
X880491000Y-115833000D03*
X874903000Y-118833000D03*
X874903000Y-115833000D03*
X869315000Y-118833000D03*
X869315000Y-115833000D03*
X863727000Y-118833000D03*
X863727000Y-115833000D03*
X858139000Y-118833000D03*
X858139000Y-115833000D03*
X852551000Y-118833000D03*
X852551000Y-115833000D03*
X846963000Y-118833000D03*
X846963000Y-115833000D03*
X841375000Y-118833000D03*
X841375000Y-115833000D03*
X835787000Y-118833000D03*
X835787000Y-115833000D03*
X830199000Y-118833000D03*
X830199000Y-115833000D03*
X824611000Y-118833000D03*
X824611000Y-115833000D03*
X819023000Y-118833000D03*
X819023000Y-115833000D03*
X813435000Y-118833000D03*
X813435000Y-115833000D03*
X807847000Y-118833000D03*
X807847000Y-115833000D03*
X802274000Y-118833000D03*
X802274000Y-115833000D03*
X796686000Y-118833000D03*
X796686000Y-115833000D03*
X791098000Y-118833000D03*
X791098000Y-115833000D03*
X785510000Y-118833000D03*
X785510000Y-115833000D03*
X779922000Y-118833000D03*
X779922000Y-115833000D03*
X774334000Y-118833000D03*
X774334000Y-115833000D03*
X768746000Y-118833000D03*
X768746000Y-115833000D03*
X763158000Y-118833000D03*
X763158000Y-115833000D03*
X757570000Y-118833000D03*
X757570000Y-115833000D03*
X751982000Y-118833000D03*
X751982000Y-115833000D03*
X746394000Y-118833000D03*
X746394000Y-115833000D03*
X740806000Y-118833000D03*
X740806000Y-115833000D03*
X735218000Y-118833000D03*
X735218000Y-115833000D03*
X729630000Y-118833000D03*
X729630000Y-115833000D03*
X724042000Y-118833000D03*
X724042000Y-115833000D03*
X718454000Y-118833000D03*
X718454000Y-115833000D03*
X712866000Y-118833000D03*
X712866000Y-115833000D03*
X707278000Y-118833000D03*
X707278000Y-115833000D03*
X701690000Y-118833000D03*
X701690000Y-115833000D03*
X696102000Y-118833000D03*
X696102000Y-115833000D03*
X690529000Y-118833000D03*
X690529000Y-115833000D03*
X684941000Y-118833000D03*
X684941000Y-115833000D03*
X679353000Y-118833000D03*
X679353000Y-115833000D03*
X673765000Y-118833000D03*
X673765000Y-115833000D03*
X668177000Y-118833000D03*
X668177000Y-115833000D03*
X662589000Y-118833000D03*
X662589000Y-115833000D03*
X657001000Y-118833000D03*
X657001000Y-115833000D03*
X651413000Y-118833000D03*
X651413000Y-115833000D03*
X645825000Y-118833000D03*
X645825000Y-115833000D03*
X640237000Y-118833000D03*
X640237000Y-115833000D03*
X634649000Y-118833000D03*
X634649000Y-115833000D03*
X629061000Y-118833000D03*
X629061000Y-115833000D03*
X623473000Y-118833000D03*
X623473000Y-115833000D03*
X617885000Y-118833000D03*
X617885000Y-115833000D03*
X612297000Y-118833000D03*
X612297000Y-115833000D03*
X606709000Y-118833000D03*
X606709000Y-115833000D03*
X601121000Y-118833000D03*
X601121000Y-115833000D03*
X595533000Y-118833000D03*
X595533000Y-115833000D03*
X589945000Y-118833000D03*
X589945000Y-115833000D03*
X584357000Y-118833000D03*
X584357000Y-115833000D03*
X578784000Y-118833000D03*
X578784000Y-115833000D03*
X573196000Y-118833000D03*
X573196000Y-115833000D03*
X567608000Y-118833000D03*
X567608000Y-115833000D03*
X562020000Y-118833000D03*
X562020000Y-115833000D03*
X556432000Y-118833000D03*
X556432000Y-115833000D03*
X550844000Y-118833000D03*
X550844000Y-115833000D03*
X545256000Y-118833000D03*
X545256000Y-115833000D03*
X539668000Y-118833000D03*
X539668000Y-115833000D03*
X534080000Y-118833000D03*
X534080000Y-115833000D03*
X528492000Y-118833000D03*
X528492000Y-115833000D03*
X522904000Y-118833000D03*
X522904000Y-115833000D03*
X517316000Y-118833000D03*
X517316000Y-115833000D03*
X511728000Y-118833000D03*
X511728000Y-115833000D03*
X506140000Y-118833000D03*
X506140000Y-115833000D03*
X500552000Y-118833000D03*
X500552000Y-115833000D03*
X494964000Y-118833000D03*
X494964000Y-115833000D03*
X489376000Y-118833000D03*
X489376000Y-115833000D03*
X483788000Y-118833000D03*
X483788000Y-115833000D03*
X478200000Y-118833000D03*
X478200000Y-115833000D03*
X472612000Y-118833000D03*
X472612000Y-115833000D03*
X467039000Y-118833000D03*
X467039000Y-115833000D03*
X461451000Y-118833000D03*
X461451000Y-115833000D03*
X455863000Y-118833000D03*
X455863000Y-115833000D03*
X450275000Y-118833000D03*
X450275000Y-115833000D03*
X444687000Y-118833000D03*
X444687000Y-115833000D03*
X439099000Y-118833000D03*
X439099000Y-115833000D03*
X433511000Y-118833000D03*
X433511000Y-115833000D03*
X427923000Y-118833000D03*
X427923000Y-115833000D03*
X422335000Y-118833000D03*
X422335000Y-115833000D03*
X416747000Y-118833000D03*
X416747000Y-115833000D03*
X411159000Y-118833000D03*
X411159000Y-115833000D03*
X405571000Y-118833000D03*
X405571000Y-115833000D03*
X399983000Y-118833000D03*
X399983000Y-115833000D03*
X394395000Y-118833000D03*
X394395000Y-115833000D03*
X388807000Y-118833000D03*
X388807000Y-115833000D03*
X383219000Y-118833000D03*
X383219000Y-115833000D03*
X377631000Y-118833000D03*
X377631000Y-115833000D03*
X372043000Y-118833000D03*
X372043000Y-115833000D03*
X366455000Y-118833000D03*
X366455000Y-115833000D03*
X360867000Y-118833000D03*
X360867000Y-115833000D03*
X355294000Y-118833000D03*
X355294000Y-115833000D03*
X349706000Y-118833000D03*
X349706000Y-115833000D03*
X344118000Y-118833000D03*
X344118000Y-115833000D03*
X338530000Y-118833000D03*
X338530000Y-115833000D03*
X332942000Y-118833000D03*
X332942000Y-115833000D03*
X327354000Y-118833000D03*
X327354000Y-115833000D03*
X321766000Y-118833000D03*
X321766000Y-115833000D03*
X316178000Y-118833000D03*
X316178000Y-115833000D03*
X310590000Y-118833000D03*
X310590000Y-115833000D03*
X305002000Y-118833000D03*
X305002000Y-115833000D03*
X299414000Y-118833000D03*
X299414000Y-115833000D03*
X293826000Y-118833000D03*
X293826000Y-115833000D03*
X288238000Y-118833000D03*
X288238000Y-115833000D03*
X282650000Y-118833000D03*
X282650000Y-115833000D03*
X277062000Y-118833000D03*
X277062000Y-115833000D03*
X271474000Y-118833000D03*
X271474000Y-115833000D03*
X265886000Y-118833000D03*
X265886000Y-115833000D03*
X260298000Y-118833000D03*
X260298000Y-115833000D03*
X254710000Y-118833000D03*
X254710000Y-115833000D03*
X249122000Y-118833000D03*
X249122000Y-115833000D03*
X243549000Y-118833000D03*
X243549000Y-115833000D03*
X237961000Y-118833000D03*
X237961000Y-115833000D03*
X232373000Y-118833000D03*
X232373000Y-115833000D03*
X226785000Y-118833000D03*
X226785000Y-115833000D03*
X221197000Y-118833000D03*
X221197000Y-115833000D03*
X215609000Y-118833000D03*
X215609000Y-115833000D03*
X210021000Y-118833000D03*
X210021000Y-115833000D03*
X204433000Y-118833000D03*
X204433000Y-115833000D03*
X198845000Y-118833000D03*
X198845000Y-115833000D03*
X193257000Y-118833000D03*
X193257000Y-115833000D03*
X187669000Y-118833000D03*
X187669000Y-115833000D03*
X182081000Y-118833000D03*
X182081000Y-115833000D03*
X176493000Y-118833000D03*
X176493000Y-115833000D03*
X170905000Y-118833000D03*
X170905000Y-115833000D03*
X165317000Y-118833000D03*
X165317000Y-115833000D03*
X159729000Y-118833000D03*
X159729000Y-115833000D03*
X154141000Y-118833000D03*
X154141000Y-115833000D03*
X148553000Y-118833000D03*
X148553000Y-115833000D03*
X142965000Y-118833000D03*
X142965000Y-115833000D03*
X137377000Y-118833000D03*
X137377000Y-115833000D03*
X131804000Y-118833000D03*
X131804000Y-115833000D03*
X126216000Y-118833000D03*
X126216000Y-115833000D03*
X120628000Y-118833000D03*
X120628000Y-115833000D03*
X115040000Y-118833000D03*
X115040000Y-115833000D03*
X109452000Y-118833000D03*
X109452000Y-115833000D03*
X103864000Y-118833000D03*
X103864000Y-115833000D03*
X98276000Y-118833000D03*
X98276000Y-115833000D03*
X92688000Y-118833000D03*
X92688000Y-115833000D03*
X87100000Y-118833000D03*
X87100000Y-115833000D03*
X81512000Y-118833000D03*
X81512000Y-115833000D03*
X75924000Y-118833000D03*
X75924000Y-115833000D03*
X70336000Y-118833000D03*
X70336000Y-115833000D03*
X64748000Y-118833000D03*
X64748000Y-115833000D03*
X59160000Y-118833000D03*
X59160000Y-115833000D03*
X53572000Y-118833000D03*
X53572000Y-115833000D03*
X47984000Y-118833000D03*
X47984000Y-115833000D03*
D12*
X914019000Y-112319000D03*
X914019000Y-114219000D03*
X914019000Y-120701000D03*
X914019000Y-122601000D03*
X911225000Y-116383000D03*
X911225000Y-118283000D03*
X908431000Y-112319000D03*
X908431000Y-114219000D03*
X908431000Y-120701000D03*
X908431000Y-122601000D03*
X905637000Y-116383000D03*
X905637000Y-118283000D03*
X902843000Y-112319000D03*
X902843000Y-114219000D03*
X902843000Y-120701000D03*
X902843000Y-122601000D03*
X900049000Y-116383000D03*
X900049000Y-118283000D03*
X897255000Y-112319000D03*
X897255000Y-114219000D03*
X897255000Y-120701000D03*
X897255000Y-122601000D03*
X894461000Y-116383000D03*
X894461000Y-118283000D03*
X891667000Y-112319000D03*
X891667000Y-114219000D03*
X891667000Y-120701000D03*
X891667000Y-122601000D03*
X888873000Y-116383000D03*
X888873000Y-118283000D03*
X886079000Y-112319000D03*
X886079000Y-114219000D03*
X886079000Y-120701000D03*
X886079000Y-122601000D03*
X883285000Y-116383000D03*
X883285000Y-118283000D03*
X880491000Y-112319000D03*
X880491000Y-114219000D03*
X880491000Y-120701000D03*
X880491000Y-122601000D03*
X877697000Y-116383000D03*
X877697000Y-118283000D03*
X874903000Y-112319000D03*
X874903000Y-114219000D03*
X874903000Y-120701000D03*
X874903000Y-122601000D03*
X872109000Y-116383000D03*
X872109000Y-118283000D03*
X869315000Y-112319000D03*
X869315000Y-114219000D03*
X869315000Y-120701000D03*
X869315000Y-122601000D03*
X866521000Y-116510000D03*
X866521000Y-118410000D03*
X863727000Y-112319000D03*
X863727000Y-114219000D03*
X863727000Y-120701000D03*
X863727000Y-122601000D03*
X860933000Y-116510000D03*
X860933000Y-118410000D03*
X858139000Y-112319000D03*
X858139000Y-114219000D03*
X858139000Y-120701000D03*
X858139000Y-122601000D03*
X855345000Y-116510000D03*
X855345000Y-118410000D03*
X852551000Y-112319000D03*
X852551000Y-114219000D03*
X852551000Y-120701000D03*
X852551000Y-122601000D03*
X849757000Y-116510000D03*
X849757000Y-118410000D03*
X846963000Y-112319000D03*
X846963000Y-114219000D03*
X846963000Y-120701000D03*
X846963000Y-122601000D03*
X844169000Y-116510000D03*
X844169000Y-118410000D03*
X841375000Y-112319000D03*
X841375000Y-114219000D03*
X841375000Y-120701000D03*
X841375000Y-122601000D03*
X838581000Y-116510000D03*
X838581000Y-118410000D03*
X835787000Y-112319000D03*
X835787000Y-114219000D03*
X835787000Y-120701000D03*
X835787000Y-122601000D03*
X832993000Y-116510000D03*
X832993000Y-118410000D03*
X830199000Y-112319000D03*
X830199000Y-114219000D03*
X830199000Y-120701000D03*
X830199000Y-122601000D03*
X827405000Y-116510000D03*
X827405000Y-118410000D03*
X824611000Y-112319000D03*
X824611000Y-114219000D03*
X824611000Y-120701000D03*
X824611000Y-122601000D03*
X821817000Y-116510000D03*
X821817000Y-118410000D03*
X819023000Y-112319000D03*
X819023000Y-114219000D03*
X819023000Y-120701000D03*
X819023000Y-122601000D03*
X816229000Y-116510000D03*
X816229000Y-118410000D03*
X813435000Y-112319000D03*
X813435000Y-114219000D03*
X813435000Y-120701000D03*
X813435000Y-122601000D03*
X810641000Y-116510000D03*
X810641000Y-118410000D03*
X807847000Y-112319000D03*
X807847000Y-114219000D03*
X807847000Y-120701000D03*
X807847000Y-122601000D03*
X805053000Y-116510000D03*
X805053000Y-118410000D03*
X802274000Y-112319000D03*
X802274000Y-114219000D03*
X802274000Y-120701000D03*
X802274000Y-122601000D03*
X799480000Y-116383000D03*
X799480000Y-118283000D03*
X796686000Y-112319000D03*
X796686000Y-114219000D03*
X796686000Y-120701000D03*
X796686000Y-122601000D03*
X793892000Y-116383000D03*
X793892000Y-118283000D03*
X791098000Y-112319000D03*
X791098000Y-114219000D03*
X791098000Y-120701000D03*
X791098000Y-122601000D03*
X788304000Y-116383000D03*
X788304000Y-118283000D03*
X785510000Y-112319000D03*
X785510000Y-114219000D03*
X785510000Y-120701000D03*
X785510000Y-122601000D03*
X782716000Y-116383000D03*
X782716000Y-118283000D03*
X779922000Y-112319000D03*
X779922000Y-114219000D03*
X779922000Y-120701000D03*
X779922000Y-122601000D03*
X777128000Y-116383000D03*
X777128000Y-118283000D03*
X774334000Y-112319000D03*
X774334000Y-114219000D03*
X774334000Y-120701000D03*
X774334000Y-122601000D03*
X771540000Y-116383000D03*
X771540000Y-118283000D03*
X768746000Y-112319000D03*
X768746000Y-114219000D03*
X768746000Y-120701000D03*
X768746000Y-122601000D03*
X765952000Y-116383000D03*
X765952000Y-118283000D03*
X763158000Y-112319000D03*
X763158000Y-114219000D03*
X763158000Y-120701000D03*
X763158000Y-122601000D03*
X760364000Y-116383000D03*
X760364000Y-118283000D03*
X757570000Y-112319000D03*
X757570000Y-114219000D03*
X757570000Y-120701000D03*
X757570000Y-122601000D03*
X754776000Y-116510000D03*
X754776000Y-118410000D03*
X751982000Y-112319000D03*
X751982000Y-114219000D03*
X751982000Y-120701000D03*
X751982000Y-122601000D03*
X749188000Y-116510000D03*
X749188000Y-118410000D03*
X746394000Y-112319000D03*
X746394000Y-114219000D03*
X746394000Y-120701000D03*
X746394000Y-122601000D03*
X743600000Y-116510000D03*
X743600000Y-118410000D03*
X740806000Y-112319000D03*
X740806000Y-114219000D03*
X740806000Y-120701000D03*
X740806000Y-122601000D03*
X738012000Y-116510000D03*
X738012000Y-118410000D03*
X735218000Y-112319000D03*
X735218000Y-114219000D03*
X735218000Y-120701000D03*
X735218000Y-122601000D03*
X732424000Y-116510000D03*
X732424000Y-118410000D03*
X729630000Y-112319000D03*
X729630000Y-114219000D03*
X729630000Y-120701000D03*
X729630000Y-122601000D03*
X726836000Y-116510000D03*
X726836000Y-118410000D03*
X724042000Y-112319000D03*
X724042000Y-114219000D03*
X724042000Y-120701000D03*
X724042000Y-122601000D03*
X721248000Y-116510000D03*
X721248000Y-118410000D03*
X718454000Y-112319000D03*
X718454000Y-114219000D03*
X718454000Y-120701000D03*
X718454000Y-122601000D03*
X715660000Y-116510000D03*
X715660000Y-118410000D03*
X712866000Y-112319000D03*
X712866000Y-114219000D03*
X712866000Y-120701000D03*
X712866000Y-122601000D03*
X710072000Y-116510000D03*
X710072000Y-118410000D03*
X707278000Y-112319000D03*
X707278000Y-114219000D03*
X707278000Y-120701000D03*
X707278000Y-122601000D03*
X704484000Y-116510000D03*
X704484000Y-118410000D03*
X701690000Y-112319000D03*
X701690000Y-114219000D03*
X701690000Y-120701000D03*
X701690000Y-122601000D03*
X698896000Y-116510000D03*
X698896000Y-118410000D03*
X696102000Y-112319000D03*
X696102000Y-114219000D03*
X696102000Y-120701000D03*
X696102000Y-122601000D03*
X693308000Y-116510000D03*
X693308000Y-118410000D03*
X690529000Y-112319000D03*
X690529000Y-114219000D03*
X690529000Y-120701000D03*
X690529000Y-122601000D03*
X687735000Y-116383000D03*
X687735000Y-118283000D03*
X684941000Y-112319000D03*
X684941000Y-114219000D03*
X684941000Y-120701000D03*
X684941000Y-122601000D03*
X682147000Y-116383000D03*
X682147000Y-118283000D03*
X679353000Y-112319000D03*
X679353000Y-114219000D03*
X679353000Y-120701000D03*
X679353000Y-122601000D03*
X676559000Y-116383000D03*
X676559000Y-118283000D03*
X673765000Y-112319000D03*
X673765000Y-114219000D03*
X673765000Y-120701000D03*
X673765000Y-122601000D03*
X670971000Y-116383000D03*
X670971000Y-118283000D03*
X668177000Y-112319000D03*
X668177000Y-114219000D03*
X668177000Y-120701000D03*
X668177000Y-122601000D03*
X665383000Y-116383000D03*
X665383000Y-118283000D03*
X662589000Y-112319000D03*
X662589000Y-114219000D03*
X662589000Y-120701000D03*
X662589000Y-122601000D03*
X659795000Y-116383000D03*
X659795000Y-118283000D03*
X657001000Y-112319000D03*
X657001000Y-114219000D03*
X657001000Y-120701000D03*
X657001000Y-122601000D03*
X654207000Y-116383000D03*
X654207000Y-118283000D03*
X651413000Y-112319000D03*
X651413000Y-114219000D03*
X651413000Y-120701000D03*
X651413000Y-122601000D03*
X648619000Y-116383000D03*
X648619000Y-118283000D03*
X645825000Y-112319000D03*
X645825000Y-114219000D03*
X645825000Y-120701000D03*
X645825000Y-122601000D03*
X643031000Y-116510000D03*
X643031000Y-118410000D03*
X640237000Y-112319000D03*
X640237000Y-114219000D03*
X640237000Y-120701000D03*
X640237000Y-122601000D03*
X637443000Y-116510000D03*
X637443000Y-118410000D03*
X634649000Y-112319000D03*
X634649000Y-114219000D03*
X634649000Y-120701000D03*
X634649000Y-122601000D03*
X631855000Y-116510000D03*
X631855000Y-118410000D03*
X629061000Y-112319000D03*
X629061000Y-114219000D03*
X629061000Y-120701000D03*
X629061000Y-122601000D03*
X626267000Y-116510000D03*
X626267000Y-118410000D03*
X623473000Y-112319000D03*
X623473000Y-114219000D03*
X623473000Y-120701000D03*
X623473000Y-122601000D03*
X620679000Y-116510000D03*
X620679000Y-118410000D03*
X617885000Y-112319000D03*
X617885000Y-114219000D03*
X617885000Y-120701000D03*
X617885000Y-122601000D03*
X615091000Y-116510000D03*
X615091000Y-118410000D03*
X612297000Y-112319000D03*
X612297000Y-114219000D03*
X612297000Y-120701000D03*
X612297000Y-122601000D03*
X609503000Y-116510000D03*
X609503000Y-118410000D03*
X606709000Y-112319000D03*
X606709000Y-114219000D03*
X606709000Y-120701000D03*
X606709000Y-122601000D03*
X603915000Y-116510000D03*
X603915000Y-118410000D03*
X601121000Y-112319000D03*
X601121000Y-114219000D03*
X601121000Y-120701000D03*
X601121000Y-122601000D03*
X598327000Y-116510000D03*
X598327000Y-118410000D03*
X595533000Y-112319000D03*
X595533000Y-114219000D03*
X595533000Y-120701000D03*
X595533000Y-122601000D03*
X592739000Y-116510000D03*
X592739000Y-118410000D03*
X589945000Y-112319000D03*
X589945000Y-114219000D03*
X589945000Y-120701000D03*
X589945000Y-122601000D03*
X587151000Y-116510000D03*
X587151000Y-118410000D03*
X584357000Y-112319000D03*
X584357000Y-114219000D03*
X584357000Y-120701000D03*
X584357000Y-122601000D03*
X581563000Y-116510000D03*
X581563000Y-118410000D03*
X578784000Y-112319000D03*
X578784000Y-114219000D03*
X578784000Y-120701000D03*
X578784000Y-122601000D03*
X575990000Y-116383000D03*
X575990000Y-118283000D03*
X573196000Y-112319000D03*
X573196000Y-114219000D03*
X573196000Y-120701000D03*
X573196000Y-122601000D03*
X570402000Y-116383000D03*
X570402000Y-118283000D03*
X567608000Y-112319000D03*
X567608000Y-114219000D03*
X567608000Y-120701000D03*
X567608000Y-122601000D03*
X564814000Y-116383000D03*
X564814000Y-118283000D03*
X562020000Y-112319000D03*
X562020000Y-114219000D03*
X562020000Y-120701000D03*
X562020000Y-122601000D03*
X559226000Y-116383000D03*
X559226000Y-118283000D03*
X556432000Y-112319000D03*
X556432000Y-114219000D03*
X556432000Y-120701000D03*
X556432000Y-122601000D03*
X553638000Y-116383000D03*
X553638000Y-118283000D03*
X550844000Y-112319000D03*
X550844000Y-114219000D03*
X550844000Y-120701000D03*
X550844000Y-122601000D03*
X548050000Y-116383000D03*
X548050000Y-118283000D03*
X545256000Y-112319000D03*
X545256000Y-114219000D03*
X545256000Y-120701000D03*
X545256000Y-122601000D03*
X542462000Y-116383000D03*
X542462000Y-118283000D03*
X539668000Y-112319000D03*
X539668000Y-114219000D03*
X539668000Y-120701000D03*
X539668000Y-122601000D03*
X536874000Y-116383000D03*
X536874000Y-118283000D03*
X534080000Y-112319000D03*
X534080000Y-114219000D03*
X534080000Y-120701000D03*
X534080000Y-122601000D03*
X531286000Y-116510000D03*
X531286000Y-118410000D03*
X528492000Y-112319000D03*
X528492000Y-114219000D03*
X528492000Y-120701000D03*
X528492000Y-122601000D03*
X525698000Y-116510000D03*
X525698000Y-118410000D03*
X522904000Y-112319000D03*
X522904000Y-114219000D03*
X522904000Y-120701000D03*
X522904000Y-122601000D03*
X520110000Y-116510000D03*
X520110000Y-118410000D03*
X517316000Y-112319000D03*
X517316000Y-114219000D03*
X517316000Y-120701000D03*
X517316000Y-122601000D03*
X514522000Y-116510000D03*
X514522000Y-118410000D03*
X511728000Y-112319000D03*
X511728000Y-114219000D03*
X511728000Y-120701000D03*
X511728000Y-122601000D03*
X508934000Y-116510000D03*
X508934000Y-118410000D03*
X506140000Y-112319000D03*
X506140000Y-114219000D03*
X506140000Y-120701000D03*
X506140000Y-122601000D03*
X503346000Y-116510000D03*
X503346000Y-118410000D03*
X500552000Y-112319000D03*
X500552000Y-114219000D03*
X500552000Y-120701000D03*
X500552000Y-122601000D03*
X497758000Y-116510000D03*
X497758000Y-118410000D03*
X494964000Y-112319000D03*
X494964000Y-114219000D03*
X494964000Y-120701000D03*
X494964000Y-122601000D03*
X492170000Y-116510000D03*
X492170000Y-118410000D03*
X489376000Y-112319000D03*
X489376000Y-114219000D03*
X489376000Y-120701000D03*
X489376000Y-122601000D03*
X486582000Y-116510000D03*
X486582000Y-118410000D03*
X483788000Y-112319000D03*
X483788000Y-114219000D03*
X483788000Y-120701000D03*
X483788000Y-122601000D03*
X480994000Y-116510000D03*
X480994000Y-118410000D03*
X478200000Y-112319000D03*
X478200000Y-114219000D03*
X478200000Y-120701000D03*
X478200000Y-122601000D03*
X475406000Y-116510000D03*
X475406000Y-118410000D03*
X472612000Y-112319000D03*
X472612000Y-114219000D03*
X472612000Y-120701000D03*
X472612000Y-122601000D03*
X469818000Y-116510000D03*
X469818000Y-118410000D03*
X467039000Y-112319000D03*
X467039000Y-114219000D03*
X467039000Y-120701000D03*
X467039000Y-122601000D03*
X464245000Y-116383000D03*
X464245000Y-118283000D03*
X461451000Y-112319000D03*
X461451000Y-114219000D03*
X461451000Y-120701000D03*
X461451000Y-122601000D03*
X458657000Y-116383000D03*
X458657000Y-118283000D03*
X455863000Y-112319000D03*
X455863000Y-114219000D03*
X455863000Y-120701000D03*
X455863000Y-122601000D03*
X453069000Y-116383000D03*
X453069000Y-118283000D03*
X450275000Y-112319000D03*
X450275000Y-114219000D03*
X450275000Y-120701000D03*
X450275000Y-122601000D03*
X447481000Y-116383000D03*
X447481000Y-118283000D03*
X444687000Y-112319000D03*
X444687000Y-114219000D03*
X444687000Y-120701000D03*
X444687000Y-122601000D03*
X441893000Y-116383000D03*
X441893000Y-118283000D03*
X439099000Y-112319000D03*
X439099000Y-114219000D03*
X439099000Y-120701000D03*
X439099000Y-122601000D03*
X436305000Y-116383000D03*
X436305000Y-118283000D03*
X433511000Y-112319000D03*
X433511000Y-114219000D03*
X433511000Y-120701000D03*
X433511000Y-122601000D03*
X430717000Y-116383000D03*
X430717000Y-118283000D03*
X427923000Y-112319000D03*
X427923000Y-114219000D03*
X427923000Y-120701000D03*
X427923000Y-122601000D03*
X425129000Y-116383000D03*
X425129000Y-118283000D03*
X422335000Y-112319000D03*
X422335000Y-114219000D03*
X422335000Y-120701000D03*
X422335000Y-122601000D03*
X419541000Y-116510000D03*
X419541000Y-118410000D03*
X416747000Y-112319000D03*
X416747000Y-114219000D03*
X416747000Y-120701000D03*
X416747000Y-122601000D03*
X413953000Y-116510000D03*
X413953000Y-118410000D03*
X411159000Y-112319000D03*
X411159000Y-114219000D03*
X411159000Y-120701000D03*
X411159000Y-122601000D03*
X408365000Y-116510000D03*
X408365000Y-118410000D03*
X405571000Y-112319000D03*
X405571000Y-114219000D03*
X405571000Y-120701000D03*
X405571000Y-122601000D03*
X402777000Y-116510000D03*
X402777000Y-118410000D03*
X399983000Y-112319000D03*
X399983000Y-114219000D03*
X399983000Y-120701000D03*
X399983000Y-122601000D03*
X397189000Y-116510000D03*
X397189000Y-118410000D03*
X394395000Y-112319000D03*
X394395000Y-114219000D03*
X394395000Y-120701000D03*
X394395000Y-122601000D03*
X391601000Y-116510000D03*
X391601000Y-118410000D03*
X388807000Y-112319000D03*
X388807000Y-114219000D03*
X388807000Y-120701000D03*
X388807000Y-122601000D03*
X386013000Y-116510000D03*
X386013000Y-118410000D03*
X383219000Y-112319000D03*
X383219000Y-114219000D03*
X383219000Y-120701000D03*
X383219000Y-122601000D03*
X380425000Y-116510000D03*
X380425000Y-118410000D03*
X377631000Y-112319000D03*
X377631000Y-114219000D03*
X377631000Y-120701000D03*
X377631000Y-122601000D03*
X374837000Y-116510000D03*
X374837000Y-118410000D03*
X372043000Y-112319000D03*
X372043000Y-114219000D03*
X372043000Y-120701000D03*
X372043000Y-122601000D03*
X369249000Y-116510000D03*
X369249000Y-118410000D03*
X366455000Y-112319000D03*
X366455000Y-114219000D03*
X366455000Y-120701000D03*
X366455000Y-122601000D03*
X363661000Y-116510000D03*
X363661000Y-118410000D03*
X360867000Y-112319000D03*
X360867000Y-114219000D03*
X360867000Y-120701000D03*
X360867000Y-122601000D03*
X358073000Y-116510000D03*
X358073000Y-118410000D03*
X355294000Y-112319000D03*
X355294000Y-114219000D03*
X355294000Y-120701000D03*
X355294000Y-122601000D03*
X352500000Y-116383000D03*
X352500000Y-118283000D03*
X349706000Y-112319000D03*
X349706000Y-114219000D03*
X349706000Y-120701000D03*
X349706000Y-122601000D03*
X346912000Y-116383000D03*
X346912000Y-118283000D03*
X344118000Y-112319000D03*
X344118000Y-114219000D03*
X344118000Y-120701000D03*
X344118000Y-122601000D03*
X341324000Y-116383000D03*
X341324000Y-118283000D03*
X338530000Y-112319000D03*
X338530000Y-114219000D03*
X338530000Y-120701000D03*
X338530000Y-122601000D03*
X335736000Y-116383000D03*
X335736000Y-118283000D03*
X332942000Y-112319000D03*
X332942000Y-114219000D03*
X332942000Y-120701000D03*
X332942000Y-122601000D03*
X330148000Y-116383000D03*
X330148000Y-118283000D03*
X327354000Y-112319000D03*
X327354000Y-114219000D03*
X327354000Y-120701000D03*
X327354000Y-122601000D03*
X324560000Y-116383000D03*
X324560000Y-118283000D03*
X321766000Y-112319000D03*
X321766000Y-114219000D03*
X321766000Y-120701000D03*
X321766000Y-122601000D03*
X318972000Y-116383000D03*
X318972000Y-118283000D03*
X316178000Y-112319000D03*
X316178000Y-114219000D03*
X316178000Y-120701000D03*
X316178000Y-122601000D03*
X313384000Y-116383000D03*
X313384000Y-118283000D03*
X310590000Y-112319000D03*
X310590000Y-114219000D03*
X310590000Y-120701000D03*
X310590000Y-122601000D03*
X307796000Y-116510000D03*
X307796000Y-118410000D03*
X305002000Y-112319000D03*
X305002000Y-114219000D03*
X305002000Y-120701000D03*
X305002000Y-122601000D03*
X302208000Y-116510000D03*
X302208000Y-118410000D03*
X299414000Y-112319000D03*
X299414000Y-114219000D03*
X299414000Y-120701000D03*
X299414000Y-122601000D03*
X296620000Y-116510000D03*
X296620000Y-118410000D03*
X293826000Y-112319000D03*
X293826000Y-114219000D03*
X293826000Y-120701000D03*
X293826000Y-122601000D03*
X291032000Y-116510000D03*
X291032000Y-118410000D03*
X288238000Y-112319000D03*
X288238000Y-114219000D03*
X288238000Y-120701000D03*
X288238000Y-122601000D03*
X285444000Y-116510000D03*
X285444000Y-118410000D03*
X282650000Y-112319000D03*
X282650000Y-114219000D03*
X282650000Y-120701000D03*
X282650000Y-122601000D03*
X279856000Y-116510000D03*
X279856000Y-118410000D03*
X277062000Y-112319000D03*
X277062000Y-114219000D03*
X277062000Y-120701000D03*
X277062000Y-122601000D03*
X274268000Y-116510000D03*
X274268000Y-118410000D03*
X271474000Y-112319000D03*
X271474000Y-114219000D03*
X271474000Y-120701000D03*
X271474000Y-122601000D03*
X268680000Y-116510000D03*
X268680000Y-118410000D03*
X265886000Y-112319000D03*
X265886000Y-114219000D03*
X265886000Y-120701000D03*
X265886000Y-122601000D03*
X263092000Y-116510000D03*
X263092000Y-118410000D03*
X260298000Y-112319000D03*
X260298000Y-114219000D03*
X260298000Y-120701000D03*
X260298000Y-122601000D03*
X257504000Y-116510000D03*
X257504000Y-118410000D03*
X254710000Y-112319000D03*
X254710000Y-114219000D03*
X254710000Y-120701000D03*
X254710000Y-122601000D03*
X251916000Y-116510000D03*
X251916000Y-118410000D03*
X249122000Y-112319000D03*
X249122000Y-114219000D03*
X249122000Y-120701000D03*
X249122000Y-122601000D03*
X246328000Y-116510000D03*
X246328000Y-118410000D03*
X243549000Y-112319000D03*
X243549000Y-114219000D03*
X243549000Y-120701000D03*
X243549000Y-122601000D03*
X240755000Y-116383000D03*
X240755000Y-118283000D03*
X237961000Y-112319000D03*
X237961000Y-114219000D03*
X237961000Y-120701000D03*
X237961000Y-122601000D03*
X235167000Y-116383000D03*
X235167000Y-118283000D03*
X232373000Y-112319000D03*
X232373000Y-114219000D03*
X232373000Y-120701000D03*
X232373000Y-122601000D03*
X229579000Y-116383000D03*
X229579000Y-118283000D03*
X226785000Y-112319000D03*
X226785000Y-114219000D03*
X226785000Y-120701000D03*
X226785000Y-122601000D03*
X223991000Y-116383000D03*
X223991000Y-118283000D03*
X221197000Y-112319000D03*
X221197000Y-114219000D03*
X221197000Y-120701000D03*
X221197000Y-122601000D03*
X218403000Y-116383000D03*
X218403000Y-118283000D03*
X215609000Y-112319000D03*
X215609000Y-114219000D03*
X215609000Y-120701000D03*
X215609000Y-122601000D03*
X212815000Y-116383000D03*
X212815000Y-118283000D03*
X210021000Y-112319000D03*
X210021000Y-114219000D03*
X210021000Y-120701000D03*
X210021000Y-122601000D03*
X207227000Y-116383000D03*
X207227000Y-118283000D03*
X204433000Y-112319000D03*
X204433000Y-114219000D03*
X204433000Y-120701000D03*
X204433000Y-122601000D03*
X201639000Y-116383000D03*
X201639000Y-118283000D03*
X198845000Y-112319000D03*
X198845000Y-114219000D03*
X198845000Y-120701000D03*
X198845000Y-122601000D03*
X196051000Y-116510000D03*
X196051000Y-118410000D03*
X193257000Y-112319000D03*
X193257000Y-114219000D03*
X193257000Y-120701000D03*
X193257000Y-122601000D03*
X190463000Y-116510000D03*
X190463000Y-118410000D03*
X187669000Y-112319000D03*
X187669000Y-114219000D03*
X187669000Y-120701000D03*
X187669000Y-122601000D03*
X184875000Y-116510000D03*
X184875000Y-118410000D03*
X182081000Y-112319000D03*
X182081000Y-114219000D03*
X182081000Y-120701000D03*
X182081000Y-122601000D03*
X179287000Y-116510000D03*
X179287000Y-118410000D03*
X176493000Y-112319000D03*
X176493000Y-114219000D03*
X176493000Y-120701000D03*
X176493000Y-122601000D03*
X173699000Y-116510000D03*
X173699000Y-118410000D03*
X170905000Y-112319000D03*
X170905000Y-114219000D03*
X170905000Y-120701000D03*
X170905000Y-122601000D03*
X168111000Y-116510000D03*
X168111000Y-118410000D03*
X165317000Y-112319000D03*
X165317000Y-114219000D03*
X165317000Y-120701000D03*
X165317000Y-122601000D03*
X162523000Y-116510000D03*
X162523000Y-118410000D03*
X159729000Y-112319000D03*
X159729000Y-114219000D03*
X159729000Y-120701000D03*
X159729000Y-122601000D03*
X156935000Y-116510000D03*
X156935000Y-118410000D03*
X154141000Y-112319000D03*
X154141000Y-114219000D03*
X154141000Y-120701000D03*
X154141000Y-122601000D03*
X151347000Y-116510000D03*
X151347000Y-118410000D03*
X148553000Y-112319000D03*
X148553000Y-114219000D03*
X148553000Y-120701000D03*
X148553000Y-122601000D03*
X145759000Y-116510000D03*
X145759000Y-118410000D03*
X142965000Y-112319000D03*
X142965000Y-114219000D03*
X142965000Y-120701000D03*
X142965000Y-122601000D03*
X140171000Y-116510000D03*
X140171000Y-118410000D03*
X137377000Y-112319000D03*
X137377000Y-114219000D03*
X137377000Y-120701000D03*
X137377000Y-122601000D03*
X134583000Y-116510000D03*
X134583000Y-118410000D03*
X131804000Y-112319000D03*
X131804000Y-114219000D03*
X131804000Y-120701000D03*
X131804000Y-122601000D03*
X129010000Y-116383000D03*
X129010000Y-118283000D03*
X126216000Y-112319000D03*
X126216000Y-114219000D03*
X126216000Y-120701000D03*
X126216000Y-122601000D03*
X123422000Y-116383000D03*
X123422000Y-118283000D03*
X120628000Y-112319000D03*
X120628000Y-114219000D03*
X120628000Y-120701000D03*
X120628000Y-122601000D03*
X117834000Y-116383000D03*
X117834000Y-118283000D03*
X115040000Y-112319000D03*
X115040000Y-114219000D03*
X115040000Y-120701000D03*
X115040000Y-122601000D03*
X112246000Y-116383000D03*
X112246000Y-118283000D03*
X109452000Y-112319000D03*
X109452000Y-114219000D03*
X109452000Y-120701000D03*
X109452000Y-122601000D03*
X106658000Y-116383000D03*
X106658000Y-118283000D03*
X103864000Y-112319000D03*
X103864000Y-114219000D03*
X103864000Y-120701000D03*
X103864000Y-122601000D03*
X101070000Y-116383000D03*
X101070000Y-118283000D03*
X98276000Y-112319000D03*
X98276000Y-114219000D03*
X98276000Y-120701000D03*
X98276000Y-122601000D03*
X95482000Y-116383000D03*
X95482000Y-118283000D03*
X92688000Y-112319000D03*
X92688000Y-114219000D03*
X92688000Y-120701000D03*
X92688000Y-122601000D03*
X89894000Y-116383000D03*
X89894000Y-118283000D03*
X87100000Y-112319000D03*
X87100000Y-114219000D03*
X87100000Y-120701000D03*
X87100000Y-122601000D03*
X84306000Y-116510000D03*
X84306000Y-118410000D03*
X81512000Y-112319000D03*
X81512000Y-114219000D03*
X81512000Y-120701000D03*
X81512000Y-122601000D03*
X78718000Y-116510000D03*
X78718000Y-118410000D03*
X75924000Y-112319000D03*
X75924000Y-114219000D03*
X75924000Y-120701000D03*
X75924000Y-122601000D03*
X73130000Y-116510000D03*
X73130000Y-118410000D03*
X70336000Y-112319000D03*
X70336000Y-114219000D03*
X70336000Y-120701000D03*
X70336000Y-122601000D03*
X67542000Y-116510000D03*
X67542000Y-118410000D03*
X64748000Y-112319000D03*
X64748000Y-114219000D03*
X64748000Y-120701000D03*
X64748000Y-122601000D03*
X61954000Y-116510000D03*
X61954000Y-118410000D03*
X59160000Y-112319000D03*
X59160000Y-114219000D03*
X59160000Y-120701000D03*
X59160000Y-122601000D03*
X56366000Y-116510000D03*
X56366000Y-118410000D03*
X53572000Y-112319000D03*
X53572000Y-114219000D03*
X53572000Y-120701000D03*
X53572000Y-122601000D03*
X50778000Y-116510000D03*
X50778000Y-118410000D03*
X47984000Y-112319000D03*
X47984000Y-114219000D03*
X47984000Y-120701000D03*
X47984000Y-122601000D03*
D11*
X42418000Y-118975000D03*
X42418000Y-115975000D03*
X36830000Y-118975000D03*
X36830000Y-115975000D03*
X31242000Y-118975000D03*
X31242000Y-115975000D03*
X25654000Y-118975000D03*
X25654000Y-115975000D03*
D12*
X45212000Y-116525000D03*
X45212000Y-118425000D03*
X42418000Y-112334000D03*
X42418000Y-114234000D03*
X42418000Y-120843000D03*
X42418000Y-122743000D03*
X39624000Y-116652000D03*
X39624000Y-118552000D03*
X36830000Y-112461000D03*
X36830000Y-114361000D03*
X36830000Y-120843000D03*
X36830000Y-122743000D03*
X34036000Y-116652000D03*
X34036000Y-118552000D03*
X31242000Y-112461000D03*
X31242000Y-114361000D03*
X31242000Y-120843000D03*
X31242000Y-122743000D03*
X28448000Y-116525000D03*
X28448000Y-118425000D03*
X25781000Y-112461000D03*
X25781000Y-114361000D03*
X25654000Y-120716000D03*
X25654000Y-122616000D03*
M02*
